<svg width="647" height="95" viewBox="0 0 647 95" fill="none" xmlns="http://www.w3.org/2000/svg">
<path d="M13.3018 43.408C10.8765 43.408 8.67784 42.8867 6.70584 41.844C4.75651 40.7787 3.21518 39.3167 2.08184 37.458C0.971177 35.5767 0.415844 33.4573 0.415844 31.1C0.415844 28.7427 0.971177 26.6347 2.08184 24.776C3.21518 22.8947 4.75651 21.4327 6.70584 20.39C8.67784 19.3247 10.8878 18.792 13.3358 18.792C15.3985 18.792 17.2572 19.1547 18.9118 19.88C20.5892 20.6053 21.9945 21.648 23.1278 23.008L19.5918 26.272C17.9825 24.4133 15.9878 23.484 13.6078 23.484C12.1345 23.484 10.8198 23.8127 9.66384 24.47C8.50784 25.1047 7.60118 26 6.94384 27.156C6.30918 28.312 5.99184 29.6267 5.99184 31.1C5.99184 32.5733 6.30918 33.888 6.94384 35.044C7.60118 36.2 8.50784 37.1067 9.66384 37.764C10.8198 38.3987 12.1345 38.716 13.6078 38.716C15.9878 38.716 17.9825 37.7753 19.5918 35.894L23.1278 39.158C21.9945 40.5407 20.5892 41.5947 18.9118 42.32C17.2345 43.0453 15.3645 43.408 13.3018 43.408ZM34.6178 36.064H31.8638V43H26.5598V24.708H31.8638V31.814H34.7198L39.6838 24.708H45.3278L38.9358 33.48L45.7698 43H39.5138L34.6178 36.064ZM48.6242 24.708H53.8942V35.588L62.8022 24.708H67.6642V43H62.3942V32.12L53.5202 43H48.6242V24.708ZM93.5149 38.648V46.944H88.5849V43H75.7329V46.944H70.8029V38.648H71.5509C72.6842 38.6253 73.4662 37.9567 73.8969 36.642C74.3276 35.3273 74.5996 33.4573 74.7129 31.032L74.9509 24.708H90.8969V38.648H93.5149ZM79.5069 31.406C79.4389 33.2647 79.2916 34.7833 79.0649 35.962C78.8609 37.1407 78.4642 38.036 77.8749 38.648H85.5929V29.06H79.6089L79.5069 31.406ZM105.161 36.064H102.407V43H97.1027V24.708H102.407V31.814H105.263L110.227 24.708H115.871L109.479 33.48L116.313 43H110.057L105.161 36.064ZM125.941 24.436C128.774 24.436 130.95 25.116 132.469 26.476C133.988 27.8133 134.747 29.842 134.747 32.562V43H129.783V40.722C128.786 42.422 126.927 43.272 124.207 43.272C122.802 43.272 121.578 43.034 120.535 42.558C119.515 42.082 118.733 41.4247 118.189 40.586C117.645 39.7473 117.373 38.7953 117.373 37.73C117.373 36.03 118.008 34.6927 119.277 33.718C120.569 32.7433 122.552 32.256 125.227 32.256H129.443C129.443 31.1 129.092 30.216 128.389 29.604C127.686 28.9693 126.632 28.652 125.227 28.652C124.252 28.652 123.289 28.8107 122.337 29.128C121.408 29.4227 120.614 29.8307 119.957 30.352L118.053 26.646C119.05 25.9433 120.24 25.3993 121.623 25.014C123.028 24.6287 124.468 24.436 125.941 24.436ZM125.533 39.702C126.44 39.702 127.244 39.498 127.947 39.09C128.65 38.6593 129.148 38.036 129.443 37.22V35.35H125.805C123.629 35.35 122.541 36.064 122.541 37.492C122.541 38.172 122.802 38.716 123.323 39.124C123.867 39.5093 124.604 39.702 125.533 39.702ZM168.894 18.1C172.574 18.7 175.394 20.08 177.354 22.24C179.314 24.36 180.294 27 180.294 30.16C180.294 32.6 179.654 34.86 178.374 36.94C177.094 38.98 175.134 40.62 172.494 41.86C169.894 43.1 166.694 43.72 162.894 43.72C159.934 43.72 157.014 43.34 154.134 42.58C151.294 41.78 148.874 40.66 146.874 39.22L150.654 31.78C152.254 32.98 154.094 33.92 156.174 34.6C158.294 35.24 160.454 35.56 162.654 35.56C165.094 35.56 167.014 35.1 168.414 34.18C169.814 33.22 170.514 31.88 170.514 30.16C170.514 26.72 167.894 25 162.654 25H158.214V18.58L166.854 8.8H148.974V0.999997H178.374V7.3L168.894 18.1ZM202.781 43.72C199.301 43.72 196.201 42.86 193.481 41.14C190.761 39.42 188.621 36.94 187.061 33.7C185.541 30.42 184.781 26.52 184.781 22C184.781 17.48 185.541 13.6 187.061 10.36C188.621 7.08 190.761 4.58 193.481 2.86C196.201 1.14 199.301 0.279999 202.781 0.279999C206.261 0.279999 209.361 1.14 212.081 2.86C214.801 4.58 216.921 7.08 218.441 10.36C220.001 13.6 220.781 17.48 220.781 22C220.781 26.52 220.001 30.42 218.441 33.7C216.921 36.94 214.801 39.42 212.081 41.14C209.361 42.86 206.261 43.72 202.781 43.72ZM202.781 35.5C205.341 35.5 207.341 34.4 208.781 32.2C210.261 30 211.001 26.6 211.001 22C211.001 17.4 210.261 14 208.781 11.8C207.341 9.6 205.341 8.5 202.781 8.5C200.261 8.5 198.261 9.6 196.781 11.8C195.341 14 194.621 17.4 194.621 22C194.621 26.6 195.341 30 196.781 32.2C198.261 34.4 200.261 35.5 202.781 35.5ZM235.224 23.68C232.144 23.68 229.624 22.64 227.664 20.56C225.744 18.44 224.784 15.62 224.784 12.1C224.784 8.58 225.744 5.78 227.664 3.7C229.624 1.58 232.144 0.52 235.224 0.52C238.304 0.52 240.804 1.58 242.724 3.7C244.644 5.78 245.604 8.58 245.604 12.1C245.604 15.62 244.644 18.44 242.724 20.56C240.804 22.64 238.304 23.68 235.224 23.68ZM260.244 0.999997H267.384L238.704 43H231.564L260.244 0.999997ZM235.224 18.76C236.584 18.76 237.644 18.2 238.404 17.08C239.204 15.96 239.604 14.3 239.604 12.1C239.604 9.9 239.204 8.24 238.404 7.12C237.644 6 236.584 5.44 235.224 5.44C233.904 5.44 232.844 6.02 232.044 7.18C231.244 8.3 230.844 9.94 230.844 12.1C230.844 14.26 231.244 15.92 232.044 17.08C232.844 18.2 233.904 18.76 235.224 18.76ZM263.724 43.48C261.724 43.48 259.924 43.02 258.324 42.1C256.764 41.14 255.544 39.78 254.664 38.02C253.784 36.26 253.344 34.22 253.344 31.9C253.344 29.58 253.784 27.54 254.664 25.78C255.544 24.02 256.764 22.68 258.324 21.76C259.924 20.8 261.724 20.32 263.724 20.32C266.804 20.32 269.304 21.38 271.224 23.5C273.184 25.58 274.164 28.38 274.164 31.9C274.164 35.42 273.184 38.24 271.224 40.36C269.304 42.44 266.804 43.48 263.724 43.48ZM263.724 38.56C265.084 38.56 266.144 38 266.904 36.88C267.704 35.72 268.104 34.06 268.104 31.9C268.104 29.74 267.704 28.1 266.904 26.98C266.144 25.82 265.084 25.24 263.724 25.24C262.404 25.24 261.344 25.8 260.544 26.92C259.744 28.04 259.344 29.7 259.344 31.9C259.344 34.1 259.744 35.76 260.544 36.88C261.344 38 262.404 38.56 263.724 38.56ZM288.21 24.708H293.48V31.848H301.436V24.708H306.74V43H301.436V36.166H293.48V43H288.21V24.708ZM319.174 24.436C322.007 24.436 324.183 25.116 325.702 26.476C327.22 27.8133 327.98 29.842 327.98 32.562V43H323.016V40.722C322.018 42.422 320.16 43.272 317.44 43.272C316.034 43.272 314.81 43.034 313.768 42.558C312.748 42.082 311.966 41.4247 311.422 40.586C310.878 39.7473 310.606 38.7953 310.606 37.73C310.606 36.03 311.24 34.6927 312.51 33.718C313.802 32.7433 315.785 32.256 318.46 32.256H322.676C322.676 31.1 322.324 30.216 321.622 29.604C320.919 28.9693 319.865 28.652 318.46 28.652C317.485 28.652 316.522 28.8107 315.57 29.128C314.64 29.4227 313.847 29.8307 313.19 30.352L311.286 26.646C312.283 25.9433 313.473 25.3993 314.856 25.014C316.261 24.6287 317.7 24.436 319.174 24.436ZM318.766 39.702C319.672 39.702 320.477 39.498 321.18 39.09C321.882 38.6593 322.381 38.036 322.676 37.22V35.35H319.038C316.862 35.35 315.774 36.064 315.774 37.492C315.774 38.172 316.034 38.716 316.556 39.124C317.1 39.5093 317.836 39.702 318.766 39.702ZM360.906 24.708V43H355.602V29.06H347.986V43H342.716V24.708H360.906ZM384.023 33.922C384.023 33.99 383.989 34.466 383.921 35.35H370.083C370.333 36.4833 370.922 37.3787 371.851 38.036C372.781 38.6933 373.937 39.022 375.319 39.022C376.271 39.022 377.11 38.886 377.835 38.614C378.583 38.3193 379.275 37.866 379.909 37.254L382.731 40.314C381.009 42.286 378.493 43.272 375.183 43.272C373.121 43.272 371.296 42.8753 369.709 42.082C368.123 41.266 366.899 40.144 366.037 38.716C365.176 37.288 364.745 35.6673 364.745 33.854C364.745 32.0633 365.165 30.454 366.003 29.026C366.865 27.5753 368.032 26.4533 369.505 25.66C371.001 24.844 372.667 24.436 374.503 24.436C376.294 24.436 377.915 24.8213 379.365 25.592C380.816 26.3627 381.949 27.4733 382.765 28.924C383.604 30.352 384.023 32.018 384.023 33.922ZM374.537 28.448C373.336 28.448 372.327 28.788 371.511 29.468C370.695 30.148 370.197 31.0773 370.015 32.256H379.025C378.844 31.1 378.345 30.182 377.529 29.502C376.713 28.7993 375.716 28.448 374.537 28.448ZM399.117 24.436C400.817 24.436 402.358 24.8327 403.741 25.626C405.146 26.3967 406.246 27.496 407.039 28.924C407.832 30.3293 408.229 31.9727 408.229 33.854C408.229 35.7353 407.832 37.39 407.039 38.818C406.246 40.2233 405.146 41.3227 403.741 42.116C402.358 42.8867 400.817 43.272 399.117 43.272C396.782 43.272 394.946 42.5353 393.609 41.062V49.596H388.305V24.708H393.371V26.816C394.686 25.2293 396.601 24.436 399.117 24.436ZM398.199 38.92C399.559 38.92 400.67 38.4667 401.531 37.56C402.415 36.6307 402.857 35.3953 402.857 33.854C402.857 32.3127 402.415 31.0887 401.531 30.182C400.67 29.2527 399.559 28.788 398.199 28.788C396.839 28.788 395.717 29.2527 394.833 30.182C393.972 31.0887 393.541 32.3127 393.541 33.854C393.541 35.3953 393.972 36.6307 394.833 37.56C395.717 38.4667 396.839 38.92 398.199 38.92ZM426.17 33.446C428.324 34.1713 429.4 35.622 429.4 37.798C429.4 39.4527 428.777 40.7333 427.53 41.64C426.284 42.5467 424.425 43 421.954 43H412.196V24.708H421.546C423.836 24.708 425.626 25.1273 426.918 25.966C428.21 26.782 428.856 27.938 428.856 29.434C428.856 30.3407 428.618 31.1453 428.142 31.848C427.689 32.528 427.032 33.0607 426.17 33.446ZM417.058 32.222H421.07C422.929 32.222 423.858 31.5647 423.858 30.25C423.858 28.958 422.929 28.312 421.07 28.312H417.058V32.222ZM421.512 39.396C423.462 39.396 424.436 38.7273 424.436 37.39C424.436 36.6873 424.21 36.1773 423.756 35.86C423.303 35.52 422.589 35.35 421.614 35.35H417.058V39.396H421.512ZM451.923 24.708L443.661 44.122C442.822 46.23 441.78 47.7147 440.533 48.576C439.309 49.4373 437.824 49.868 436.079 49.868C435.127 49.868 434.186 49.7207 433.257 49.426C432.328 49.1313 431.568 48.7233 430.979 48.202L432.917 44.428C433.325 44.7907 433.79 45.074 434.311 45.278C434.855 45.482 435.388 45.584 435.909 45.584C436.634 45.584 437.224 45.4027 437.677 45.04C438.13 44.7 438.538 44.122 438.901 43.306L438.969 43.136L431.047 24.708H436.521L441.655 37.118L446.823 24.708H451.923ZM472.038 24.436C473.896 24.436 475.562 24.844 477.036 25.66C478.509 26.4533 479.665 27.564 480.504 28.992C481.342 30.42 481.762 32.0407 481.762 33.854C481.762 35.6673 481.342 37.288 480.504 38.716C479.665 40.144 478.509 41.266 477.036 42.082C475.562 42.8753 473.896 43.272 472.038 43.272C470.428 43.272 468.955 42.9773 467.618 42.388C466.28 41.776 465.17 40.926 464.286 39.838C463.402 38.7273 462.812 37.458 462.518 36.03H460.002V43H454.732V24.708H460.002V31.44H462.552C463.073 29.3093 464.184 27.6093 465.884 26.34C467.584 25.0707 469.635 24.436 472.038 24.436ZM472.038 38.92C473.33 38.92 474.395 38.4667 475.234 37.56C476.095 36.6307 476.526 35.3953 476.526 33.854C476.526 32.29 476.095 31.0547 475.234 30.148C474.395 29.2413 473.33 28.788 472.038 28.788C470.723 28.788 469.635 29.2413 468.774 30.148C467.935 31.0547 467.516 32.29 467.516 33.854C467.516 35.3953 467.935 36.6307 468.774 37.56C469.635 38.4667 470.723 38.92 472.038 38.92ZM513.763 24.708V43H508.459V29.06H500.843V43H495.573V24.708H513.763ZM527.667 43.272C525.74 43.272 524.006 42.8753 522.465 42.082C520.946 41.266 519.756 40.144 518.895 38.716C518.033 37.288 517.603 35.6673 517.603 33.854C517.603 32.0407 518.033 30.42 518.895 28.992C519.756 27.564 520.946 26.4533 522.465 25.66C524.006 24.844 525.74 24.436 527.667 24.436C529.593 24.436 531.316 24.844 532.835 25.66C534.353 26.4533 535.543 27.564 536.405 28.992C537.266 30.42 537.697 32.0407 537.697 33.854C537.697 35.6673 537.266 37.288 536.405 38.716C535.543 40.144 534.353 41.266 532.835 42.082C531.316 42.8753 529.593 43.272 527.667 43.272ZM527.667 38.92C529.027 38.92 530.137 38.4667 530.999 37.56C531.883 36.6307 532.325 35.3953 532.325 33.854C532.325 32.3127 531.883 31.0887 530.999 30.182C530.137 29.2527 529.027 28.788 527.667 28.788C526.307 28.788 525.185 29.2527 524.301 30.182C523.417 31.0887 522.975 32.3127 522.975 33.854C522.975 35.3953 523.417 36.6307 524.301 37.56C525.185 38.4667 526.307 38.92 527.667 38.92ZM549.653 36.064H546.899V43H541.595V24.708H546.899V31.814H549.755L554.719 24.708H560.363L553.971 33.48L560.805 43H554.549L549.653 36.064ZM580.956 24.708L572.694 44.122C571.855 46.23 570.813 47.7147 569.566 48.576C568.342 49.4373 566.857 49.868 565.112 49.868C564.16 49.868 563.219 49.7207 562.29 49.426C561.361 49.1313 560.601 48.7233 560.012 48.202L561.95 44.428C562.358 44.7907 562.823 45.074 563.344 45.278C563.888 45.482 564.421 45.584 564.942 45.584C565.667 45.584 566.257 45.4027 566.71 45.04C567.163 44.7 567.571 44.122 567.934 43.306L568.002 43.136L560.08 24.708H565.554L570.688 37.118L575.856 24.708H580.956ZM601.955 24.708V43H596.651V29.06H589.035V43H583.765V24.708H601.955ZM615.348 36.064H612.594V43H607.29V24.708H612.594V31.814H615.45L620.414 24.708H626.058L619.666 33.48L626.5 43H620.244L615.348 36.064ZM646.651 24.708L638.389 44.122C637.551 46.23 636.508 47.7147 635.261 48.576C634.037 49.4373 632.553 49.868 630.807 49.868C629.855 49.868 628.915 49.7207 627.985 49.426C627.056 49.1313 626.297 48.7233 625.707 48.202L627.645 44.428C628.053 44.7907 628.518 45.074 629.039 45.278C629.583 45.482 630.116 45.584 630.637 45.584C631.363 45.584 631.952 45.4027 632.405 45.04C632.859 44.7 633.267 44.122 633.629 43.306L633.697 43.136L625.775 24.708H631.249L636.383 37.118L641.551 24.708H646.651ZM156.457 91.272C154.53 91.272 152.796 90.8753 151.255 90.082C149.736 89.266 148.546 88.144 147.685 86.716C146.824 85.288 146.393 83.6673 146.393 81.854C146.393 80.0407 146.824 78.42 147.685 76.992C148.546 75.564 149.736 74.4533 151.255 73.66C152.796 72.844 154.53 72.436 156.457 72.436C158.384 72.436 160.106 72.844 161.625 73.66C163.144 74.4533 164.334 75.564 165.195 76.992C166.056 78.42 166.487 80.0407 166.487 81.854C166.487 83.6673 166.056 85.288 165.195 86.716C164.334 88.144 163.144 89.266 161.625 90.082C160.106 90.8753 158.384 91.272 156.457 91.272ZM156.457 86.92C157.817 86.92 158.928 86.4667 159.789 85.56C160.673 84.6307 161.115 83.3953 161.115 81.854C161.115 80.3127 160.673 79.0887 159.789 78.182C158.928 77.2527 157.817 76.788 156.457 76.788C155.097 76.788 153.975 77.2527 153.091 78.182C152.207 79.0887 151.765 80.3127 151.765 81.854C151.765 83.3953 152.207 84.6307 153.091 85.56C153.975 86.4667 155.097 86.92 156.457 86.92ZM180.959 73.966C182.704 73.966 184.234 74.3287 185.549 75.054C186.864 75.7567 187.872 76.754 188.575 78.046C189.3 79.338 189.663 80.834 189.663 82.534C189.663 84.2793 189.232 85.832 188.371 87.192C187.532 88.5293 186.354 89.572 184.835 90.32C183.316 91.0453 181.594 91.408 179.667 91.408C176.471 91.408 173.955 90.388 172.119 88.348C170.306 86.2853 169.399 83.2707 169.399 79.304C169.399 75.632 170.192 72.708 171.779 70.532C173.388 68.3333 175.848 66.894 179.157 66.214L187.861 64.48L188.575 69.036L180.891 70.566C178.806 70.974 177.253 71.654 176.233 72.606C175.236 73.558 174.646 74.9067 174.465 76.652C175.258 75.7907 176.21 75.1333 177.321 74.68C178.432 74.204 179.644 73.966 180.959 73.966ZM179.701 87.294C181.061 87.294 182.149 86.852 182.965 85.968C183.804 85.084 184.223 83.962 184.223 82.602C184.223 81.2193 183.804 80.12 182.965 79.304C182.149 78.488 181.061 78.08 179.701 78.08C178.318 78.08 177.208 78.488 176.369 79.304C175.53 80.12 175.111 81.2193 175.111 82.602C175.111 83.9847 175.542 85.118 176.403 86.002C177.264 86.8633 178.364 87.294 179.701 87.294ZM202.216 91.272C200.267 91.272 198.51 90.8753 196.946 90.082C195.405 89.266 194.192 88.144 193.308 86.716C192.447 85.288 192.016 83.6673 192.016 81.854C192.016 80.0407 192.447 78.42 193.308 76.992C194.192 75.564 195.405 74.4533 196.946 73.66C198.51 72.844 200.267 72.436 202.216 72.436C204.143 72.436 205.82 72.844 207.248 73.66C208.699 74.4533 209.753 75.598 210.41 77.094L206.296 79.304C205.344 77.6267 203.973 76.788 202.182 76.788C200.799 76.788 199.655 77.2413 198.748 78.148C197.841 79.0547 197.388 80.29 197.388 81.854C197.388 83.418 197.841 84.6533 198.748 85.56C199.655 86.4667 200.799 86.92 202.182 86.92C203.995 86.92 205.367 86.0813 206.296 84.404L210.41 86.648C209.753 88.0987 208.699 89.232 207.248 90.048C205.82 90.864 204.143 91.272 202.216 91.272ZM231.161 72.708V91H225.857V77.06H220.077L219.907 80.29C219.817 82.6927 219.59 84.6873 219.227 86.274C218.865 87.8607 218.275 89.1073 217.459 90.014C216.643 90.9207 215.51 91.374 214.059 91.374C213.289 91.374 212.371 91.238 211.305 90.966L211.577 86.614C211.94 86.6593 212.201 86.682 212.359 86.682C213.153 86.682 213.742 86.3987 214.127 85.832C214.535 85.2427 214.807 84.506 214.943 83.622C215.079 82.7153 215.181 81.5253 215.249 80.052L215.521 72.708H231.161ZM253.818 72.436C255.677 72.436 257.343 72.844 258.816 73.66C260.289 74.4533 261.445 75.564 262.284 76.992C263.123 78.42 263.542 80.0407 263.542 81.854C263.542 83.6673 263.123 85.288 262.284 86.716C261.445 88.144 260.289 89.266 258.816 90.082C257.343 90.8753 255.677 91.272 253.818 91.272C252.209 91.272 250.735 90.9773 249.398 90.388C248.061 89.776 246.95 88.926 246.066 87.838C245.182 86.7273 244.593 85.458 244.298 84.03H241.782V91H236.512V72.708H241.782V79.44H244.332C244.853 77.3093 245.964 75.6093 247.664 74.34C249.364 73.0707 251.415 72.436 253.818 72.436ZM253.818 86.92C255.11 86.92 256.175 86.4667 257.014 85.56C257.875 84.6307 258.306 83.3953 258.306 81.854C258.306 80.29 257.875 79.0547 257.014 78.148C256.175 77.2413 255.11 76.788 253.818 76.788C252.503 76.788 251.415 77.2413 250.554 78.148C249.715 79.0547 249.296 80.29 249.296 81.854C249.296 83.3953 249.715 84.6307 250.554 85.56C251.415 86.4667 252.503 86.92 253.818 86.92ZM282.179 77.06H275.991V91H270.721V77.06H264.533V72.708H282.179V77.06ZM285.256 72.708H290.526V79.848H298.482V72.708H303.786V91H298.482V84.166H290.526V91H285.256V72.708ZM317.681 91.272C315.755 91.272 314.021 90.8753 312.479 90.082C310.961 89.266 309.771 88.144 308.909 86.716C308.048 85.288 307.617 83.6673 307.617 81.854C307.617 80.0407 308.048 78.42 308.909 76.992C309.771 75.564 310.961 74.4533 312.479 73.66C314.021 72.844 315.755 72.436 317.681 72.436C319.608 72.436 321.331 72.844 322.849 73.66C324.368 74.4533 325.558 75.564 326.419 76.992C327.281 78.42 327.711 80.0407 327.711 81.854C327.711 83.6673 327.281 85.288 326.419 86.716C325.558 88.144 324.368 89.266 322.849 90.082C321.331 90.8753 319.608 91.272 317.681 91.272ZM317.681 86.92C319.041 86.92 320.152 86.4667 321.013 85.56C321.897 84.6307 322.339 83.3953 322.339 81.854C322.339 80.3127 321.897 79.0887 321.013 78.182C320.152 77.2527 319.041 76.788 317.681 76.788C316.321 76.788 315.199 77.2527 314.315 78.182C313.431 79.0887 312.989 80.3127 312.989 81.854C312.989 83.3953 313.431 84.6307 314.315 85.56C315.199 86.4667 316.321 86.92 317.681 86.92ZM361.99 86.648V94.944H357.06V91H344.208V94.944H339.278V86.648H340.026C341.16 86.6253 341.942 85.9567 342.372 84.642C342.803 83.3273 343.075 81.4573 343.188 79.032L343.426 72.708H359.372V86.648H361.99ZM347.982 79.406C347.914 81.2647 347.767 82.7833 347.54 83.962C347.336 85.1407 346.94 86.036 346.35 86.648H354.068V77.06H348.084L347.982 79.406ZM383.122 72.708V91H377.818V77.06H372.038L371.868 80.29C371.778 82.6927 371.551 84.6873 371.188 86.274C370.826 87.8607 370.236 89.1073 369.42 90.014C368.604 90.9207 367.471 91.374 366.02 91.374C365.25 91.374 364.332 91.238 363.266 90.966L363.538 86.614C363.901 86.6593 364.162 86.682 364.32 86.682C365.114 86.682 365.703 86.3987 366.088 85.832C366.496 85.2427 366.768 84.506 366.904 83.622C367.04 82.7153 367.142 81.5253 367.21 80.052L367.482 72.708H383.122ZM404.725 72.708V91H399.999V85.764H396.089L392.621 91H386.977L391.159 85.016C389.89 84.5173 388.915 83.8033 388.235 82.874C387.578 81.922 387.249 80.7773 387.249 79.44C387.249 77.2867 388.02 75.632 389.561 74.476C391.125 73.2973 393.267 72.708 395.987 72.708H404.725ZM396.089 77.026C394.956 77.026 394.094 77.23 393.505 77.638C392.938 78.046 392.655 78.7033 392.655 79.61C392.655 80.5167 392.927 81.1853 393.471 81.616C394.038 82.024 394.888 82.228 396.021 82.228H399.999V77.026H396.089ZM433.925 81.446C436.079 82.1713 437.155 83.622 437.155 85.798C437.155 87.4527 436.532 88.7333 435.285 89.64C434.039 90.5467 432.18 91 429.709 91H419.951V72.708H429.301C431.591 72.708 433.381 73.1273 434.673 73.966C435.965 74.782 436.611 75.938 436.611 77.434C436.611 78.3407 436.373 79.1453 435.897 79.848C435.444 80.528 434.787 81.0607 433.925 81.446ZM424.813 80.222H428.825C430.684 80.222 431.613 79.5647 431.613 78.25C431.613 76.958 430.684 76.312 428.825 76.312H424.813V80.222ZM429.267 87.396C431.217 87.396 432.191 86.7273 432.191 85.39C432.191 84.6873 431.965 84.1773 431.511 83.86C431.058 83.52 430.344 83.35 429.369 83.35H424.813V87.396H429.267ZM450.056 91.272C448.106 91.272 446.35 90.8753 444.786 90.082C443.244 89.266 442.032 88.144 441.148 86.716C440.286 85.288 439.856 83.6673 439.856 81.854C439.856 80.0407 440.286 78.42 441.148 76.992C442.032 75.564 443.244 74.4533 444.786 73.66C446.35 72.844 448.106 72.436 450.056 72.436C451.982 72.436 453.66 72.844 455.088 73.66C456.538 74.4533 457.592 75.598 458.25 77.094L454.136 79.304C453.184 77.6267 451.812 76.788 450.022 76.788C448.639 76.788 447.494 77.2413 446.588 78.148C445.681 79.0547 445.228 80.29 445.228 81.854C445.228 83.418 445.681 84.6533 446.588 85.56C447.494 86.4667 448.639 86.92 450.022 86.92C451.835 86.92 453.206 86.0813 454.136 84.404L458.25 86.648C457.592 88.0987 456.538 89.232 455.088 90.048C453.66 90.864 451.982 91.272 450.056 91.272ZM479.272 81.922C479.272 81.99 479.238 82.466 479.17 83.35H465.332C465.582 84.4833 466.171 85.3787 467.1 86.036C468.03 86.6933 469.186 87.022 470.568 87.022C471.52 87.022 472.359 86.886 473.084 86.614C473.832 86.3193 474.524 85.866 475.158 85.254L477.98 88.314C476.258 90.286 473.742 91.272 470.432 91.272C468.37 91.272 466.545 90.8753 464.958 90.082C463.372 89.266 462.148 88.144 461.286 86.716C460.425 85.288 459.994 83.6673 459.994 81.854C459.994 80.0633 460.414 78.454 461.252 77.026C462.114 75.5753 463.281 74.4533 464.754 73.66C466.25 72.844 467.916 72.436 469.752 72.436C471.543 72.436 473.164 72.8213 474.614 73.592C476.065 74.3627 477.198 75.4733 478.014 76.924C478.853 78.352 479.272 80.018 479.272 81.922ZM469.786 76.448C468.585 76.448 467.576 76.788 466.76 77.468C465.944 78.148 465.446 79.0773 465.264 80.256H474.274C474.093 79.1 473.594 78.182 472.778 77.502C471.962 76.7993 470.965 76.448 469.786 76.448ZM494.582 91L490.57 85.39L486.422 91H480.642L487.68 81.786L480.88 72.708H486.83L490.706 78.046L494.684 72.708H500.328L493.528 81.65L500.6 91H494.582Z" fill="#0D0D0D"/>
</svg>
